<?xml version="1.0" encoding="UTF-8" standalone="no"?>
<!-- Created with Inkscape (http://www.inkscape.org/) -->
<svg xmlns:dc="http://purl.org/dc/elements/1.1/" xmlns:cc="http://creativecommons.org/ns#" xmlns:rdf="http://www.w3.org/1999/02/22-rdf-syntax-ns#" xmlns:svg="http://www.w3.org/2000/svg" xmlns="http://www.w3.org/2000/svg" xmlns:xlink="http://www.w3.org/1999/xlink" xmlns:sodipodi="http://sodipodi.sourceforge.net/DTD/sodipodi-0.dtd" xmlns:inkscape="http://www.inkscape.org/namespaces/inkscape" width="210.58882" height="49.999996" id="svg2" version="1.1" inkscape:version="0.48.4 r9939" sodipodi:docname="marca_innatus_header.svg">
  <defs id="defs4">
    <pattern inkscape:collect="always" xlink:href="#Checkerboard" id="pattern6526" patternTransform="matrix(10,0,0,10,-6.3313599,110.36577)"/>
    <pattern inkscape:stockid="Checkerboard" id="Checkerboard" patternTransform="translate(0,0) scale(10,10)" height="2" width="2" patternUnits="userSpaceOnUse" inkscape:collect="always">
      <rect id="rect10738" height="1" width="1" y="0" x="0" style="fill:black;stroke:none"/>
      <rect id="rect10740" height="1" width="1" y="1" x="1" style="fill:black;stroke:none"/>
    </pattern>
  </defs>
  <sodipodi:namedview id="base" pagecolor="#ffffff" bordercolor="#666666" borderopacity="1.0" inkscape:pageopacity="0.0" inkscape:pageshadow="2" inkscape:zoom="12.074005" inkscape:cx="54.774612" inkscape:cy="27.23417" inkscape:document-units="px" inkscape:current-layer="layer1" showgrid="false" fit-margin-top="0" fit-margin-left="0" fit-margin-right="0" fit-margin-bottom="0" inkscape:window-width="1366" inkscape:window-height="744" inkscape:window-x="0" inkscape:window-y="24" inkscape:window-maximized="1"/>
  <metadata id="metadata7">
    <rdf:RDF>
      <cc:Work rdf:about="">
        <dc:format>image/svg+xml</dc:format>
        <dc:type rdf:resource="http://purl.org/dc/dcmitype/StillImage"/>
        <dc:title/>
      </cc:Work>
    </rdf:RDF>
  </metadata>
  <g inkscape:label="Capa 1" inkscape:groupmode="layer" id="layer1" transform="translate(-130.17974,-701.65866)">
    <g id="g6191" inkscape:export-filename="/home/lucas/Documentos/Innatus/GRAFICA/WEB/MOCKUP INNATUS/Assets_web/marca_innatus_header.png" inkscape:export-xdpi="90" inkscape:export-ydpi="90">
      <g id="g6182">
        <path inkscape:connector-curvature="0" id="path6161" style="font-size:43.97485733px;font-style:normal;font-variant:normal;font-weight:normal;font-stretch:normal;text-indent:0;text-align:center;text-decoration:none;line-height:125%;letter-spacing:0px;word-spacing:0px;text-transform:none;direction:ltr;block-progression:tb;writing-mode:lr-tb;text-anchor:middle;color:black;fill:#424854;fill-opacity:1;fill-rule:nonzero;stroke:none;stroke-width:5;marker:none;visibility:visible;font-family:Nunito;-inkscape-font-specification:Nunito" d="m 201.9944,713.42109 c 0,0.70145 -0.27914,1.28119 -0.83741,1.73924 -0.55828,0.44378 -1.27402,0.66566 -2.14721,0.66563 -0.42945,3e-5 -0.83026,-0.0572 -1.20244,-0.17177 -0.35787,-0.12881 -0.67279,-0.30059 -0.94477,-0.51533 -0.25767,-0.2147 -0.46523,-0.4652 -0.62269,-0.75153 -0.14315,-0.30058 -0.21472,-0.62266 -0.21472,-0.96624 0,-0.34353 0.0716,-0.65845 0.21472,-0.94477 0.15746,-0.30058 0.36502,-0.55825 0.62269,-0.773 0.27198,-0.21469 0.59406,-0.37931 0.96625,-0.49386 0.37217,-0.1288 0.77299,-0.19322 1.20243,-0.19325 0.42944,3e-5 0.82309,0.0644 1.18097,0.19325 0.37218,0.11455 0.6871,0.27917 0.94477,0.49386 0.25766,0.21475 0.45807,0.47242 0.60122,0.773 0.15745,0.28632 0.23619,0.60124 0.23619,0.94477 m -5.49685,9.6195 c -1e-5,-0.41511 0.0716,-0.77298 0.21472,-1.07361 0.14314,-0.3149 0.32923,-0.57256 0.55827,-0.77299 0.24335,-0.2147 0.51533,-0.37216 0.81594,-0.47239 0.31492,-0.11449 0.62984,-0.17175 0.94477,-0.17177 0.31492,2e-5 0.62269,0.0573 0.9233,0.17177 0.30061,0.10023 0.56543,0.25769 0.79447,0.47239 0.24334,0.20043 0.43659,0.45809 0.57975,0.77299 0.14314,0.30063 0.21471,0.6585 0.21472,1.07361 l 0,16.51204 c -1e-5,0.41513 -0.0787,0.78016 -0.23619,1.09508 -0.14316,0.30061 -0.33641,0.55827 -0.57975,0.773 -0.22904,0.2004 -0.50102,0.35786 -0.81594,0.47238 -0.30062,0.1002 -0.60838,0.15031 -0.9233,0.15031 -0.31493,0 -0.6227,-0.0501 -0.9233,-0.15031 -0.30061,-0.1002 -0.56544,-0.25051 -0.79447,-0.45091 -0.22904,-0.21472 -0.41513,-0.47955 -0.55827,-0.79447 -0.14315,-0.31492 -0.21473,-0.67995 -0.21472,-1.09508 l 0,-16.51204"/>
        <path inkscape:connector-curvature="0" id="path6163" style="font-size:43.97485733px;font-style:normal;font-variant:normal;font-weight:normal;font-stretch:normal;text-indent:0;text-align:center;text-decoration:none;line-height:125%;letter-spacing:0px;word-spacing:0px;text-transform:none;direction:ltr;block-progression:tb;writing-mode:lr-tb;text-anchor:middle;color:black;fill:#424854;fill-opacity:1;fill-rule:nonzero;stroke:none;stroke-width:5;marker:none;visibility:visible;font-family:Nunito;-inkscape-font-specification:Nunito" d="m 207.46979,722.91176 c 0,-0.38648 0.0716,-0.73004 0.21472,-1.03066 0.14314,-0.30059 0.32924,-0.54394 0.55827,-0.73006 0.24335,-0.20038 0.51533,-0.35069 0.81594,-0.45091 0.31492,-0.10018 0.62985,-0.15028 0.94478,-0.1503 0.31491,2e-5 0.61552,0.0501 0.90182,0.1503 0.30061,0.0859 0.56543,0.22906 0.79447,0.42944 0.24335,0.18611 0.43659,0.42231 0.57975,0.70858 0.14314,0.272 0.22187,0.60124 0.23619,0.98772 l 0,1.67482 c 0.25766,-0.52963 0.62984,-1.07358 1.11655,-1.63188 0.50101,-0.55825 1.0736,-1.02348 1.71777,-1.39568 0.64415,-0.38648 1.33841,-0.67993 2.08279,-0.88036 0.74435,-0.20038 1.50303,-0.30059 2.27604,-0.30061 1.00202,2e-5 1.95395,0.15748 2.85579,0.47239 0.91613,0.31494 1.71775,0.8088 2.40488,1.48157 0.7014,0.6585 1.25252,1.51022 1.65335,2.55518 0.41511,1.03068 0.62267,2.26174 0.62269,3.6932 l 0,11.12255 c -2e-5,0.40081 -0.0716,0.75152 -0.21472,1.05213 -0.14317,0.30061 -0.33642,0.55828 -0.57975,0.773 -0.22905,0.2004 -0.50103,0.35071 -0.81594,0.45091 -0.30063,0.1002 -0.60839,0.15031 -0.9233,0.15031 -0.31494,0 -0.62271,-0.0501 -0.9233,-0.15031 -0.28631,-0.1002 -0.55113,-0.25051 -0.79446,-0.45091 -0.22906,-0.21472 -0.41515,-0.47239 -0.55828,-0.773 -0.14316,-0.30061 -0.21474,-0.65132 -0.21472,-1.05213 l 0,-11.16549 c -2e-5,-0.81593 -0.11454,-1.52451 -0.34355,-2.12574 -0.22906,-0.6012 -0.53682,-1.10222 -0.9233,-1.50305 -0.38652,-0.40079 -0.83743,-0.69424 -1.35275,-0.88035 -0.51534,-0.20039 -1.0593,-0.30059 -1.63188,-0.30061 -0.75869,2e-5 -1.46727,0.12169 -2.12573,0.36502 -0.65849,0.24337 -1.23824,0.61555 -1.73924,1.11655 -0.48671,0.48672 -0.87321,1.05215 -1.1595,1.6963 -0.2863,0.64418 -0.42945,1.46727 -0.42944,2.46929 l 0,10.32808 c -1e-5,0.40081 -0.0716,0.75152 -0.21472,1.05213 -0.14315,0.30061 -0.3364,0.55828 -0.57975,0.773 -0.22904,0.2004 -0.50102,0.35071 -0.81594,0.45091 -0.30061,0.1002 -0.60838,0.15031 -0.9233,0.15031 -0.31493,0 -0.62269,-0.0501 -0.9233,-0.15031 -0.30061,-0.1002 -0.57259,-0.25051 -0.81594,-0.45091 -0.22903,-0.21472 -0.41513,-0.47239 -0.55827,-0.773 -0.14315,-0.30061 -0.21472,-0.65132 -0.21472,-1.05213 l 0,-16.70529"/>
        <path inkscape:connector-curvature="0" id="path6165" style="font-size:43.97485733px;font-style:normal;font-variant:normal;font-weight:normal;font-stretch:normal;text-indent:0;text-align:center;text-decoration:none;line-height:125%;letter-spacing:0px;word-spacing:0px;text-transform:none;direction:ltr;block-progression:tb;writing-mode:lr-tb;text-anchor:middle;color:black;fill:#424854;fill-opacity:1;fill-rule:nonzero;stroke:none;stroke-width:5;marker:none;visibility:visible;font-family:Nunito;-inkscape-font-specification:Nunito" d="m 233.15042,722.91176 c -1e-5,-0.38648 0.0716,-0.73004 0.21472,-1.03066 0.14314,-0.30059 0.32923,-0.54394 0.55827,-0.73006 0.24335,-0.20038 0.51533,-0.35069 0.81594,-0.45091 0.31492,-0.10018 0.62985,-0.15028 0.94478,-0.1503 0.31491,2e-5 0.61552,0.0501 0.90182,0.1503 0.30061,0.0859 0.56543,0.22906 0.79447,0.42944 0.24334,0.18611 0.43659,0.42231 0.57975,0.70858 0.14314,0.272 0.22187,0.60124 0.23619,0.98772 l 0,1.67482 c 0.25766,-0.52963 0.62984,-1.07358 1.11655,-1.63188 0.50101,-0.55825 1.07359,-1.02348 1.71777,-1.39568 0.64415,-0.38648 1.33841,-0.67993 2.08279,-0.88036 0.74435,-0.20038 1.50303,-0.30059 2.27604,-0.30061 1.00202,2e-5 1.95395,0.15748 2.85579,0.47239 0.91613,0.31494 1.71775,0.8088 2.40488,1.48157 0.7014,0.6585 1.25251,1.51022 1.65335,2.55518 0.4151,1.03068 0.62267,2.26174 0.62269,3.6932 l 0,11.12255 c -2e-5,0.40081 -0.0716,0.75152 -0.21472,1.05213 -0.14317,0.30061 -0.33642,0.55828 -0.57975,0.773 -0.22906,0.2004 -0.50103,0.35071 -0.81594,0.45091 -0.30063,0.1002 -0.60839,0.15031 -0.9233,0.15031 -0.31494,0 -0.62271,-0.0501 -0.9233,-0.15031 -0.28631,-0.1002 -0.55113,-0.25051 -0.79447,-0.45091 -0.22905,-0.21472 -0.41514,-0.47239 -0.55827,-0.773 -0.14317,-0.30061 -0.21474,-0.65132 -0.21472,-1.05213 l 0,-11.16549 c -2e-5,-0.81593 -0.11454,-1.52451 -0.34355,-2.12574 -0.22906,-0.6012 -0.53682,-1.10222 -0.9233,-1.50305 -0.38652,-0.40079 -0.83743,-0.69424 -1.35275,-0.88035 -0.51534,-0.20039 -1.0593,-0.30059 -1.63188,-0.30061 -0.75869,2e-5 -1.46727,0.12169 -2.12573,0.36502 -0.65849,0.24337 -1.23824,0.61555 -1.73924,1.11655 -0.48671,0.48672 -0.87321,1.05215 -1.1595,1.6963 -0.2863,0.64418 -0.42945,1.46727 -0.42944,2.46929 l 0,10.32808 c -1e-5,0.40081 -0.0716,0.75152 -0.21472,1.05213 -0.14316,0.30061 -0.3364,0.55828 -0.57975,0.773 -0.22904,0.2004 -0.50102,0.35071 -0.81594,0.45091 -0.30061,0.1002 -0.60838,0.15031 -0.9233,0.15031 -0.31493,0 -0.62269,-0.0501 -0.9233,-0.15031 -0.30061,-0.1002 -0.57259,-0.25051 -0.81594,-0.45091 -0.22904,-0.21472 -0.41513,-0.47239 -0.55827,-0.773 -0.14315,-0.30061 -0.21473,-0.65132 -0.21472,-1.05213 l 0,-16.70529"/>
        <path inkscape:connector-curvature="0" id="path6167" style="font-size:43.97485733px;font-style:normal;font-variant:normal;font-weight:normal;font-stretch:normal;text-indent:0;text-align:center;text-decoration:none;line-height:125%;letter-spacing:0px;word-spacing:0px;text-transform:none;direction:ltr;block-progression:tb;writing-mode:lr-tb;text-anchor:middle;color:black;fill:#424854;fill-opacity:1;fill-rule:nonzero;stroke:none;stroke-width:5;marker:none;visibility:visible;font-family:Nunito;-inkscape-font-specification:Nunito" d="m 271.47811,727.74298 c -1e-5,-0.73004 -0.10737,-1.33841 -0.32208,-1.82513 -0.20042,-0.48668 -0.48671,-0.88034 -0.85888,-1.18097 -0.3722,-0.30059 -0.82311,-0.51531 -1.35274,-0.64416 -0.51535,-0.12881 -1.08794,-0.19323 -1.71777,-0.19325 -0.71575,2e-5 -1.36707,0.043 -1.95396,0.12884 -0.58692,0.0716 -1.13803,0.17895 -1.65335,0.32208 -0.50103,0.14316 -0.97341,0.30778 -1.41716,0.49386 -0.44377,0.17179 -0.88036,0.35788 -1.3098,0.55827 -0.21473,0.0859 -0.42945,0.12885 -0.64416,0.12883 -0.20041,2e-5 -0.39366,-0.0358 -0.57975,-0.10736 -0.17178,-0.0859 -0.32924,-0.19323 -0.47239,-0.32208 -0.12883,-0.14313 -0.23619,-0.30059 -0.32208,-0.47239 -0.0716,-0.18607 -0.10736,-0.37216 -0.10736,-0.55827 0,-0.15744 0.0215,-0.29343 0.0644,-0.40797 0.0573,-0.12881 0.13598,-0.27196 0.23619,-0.42944 0.6871,-1.03064 1.75355,-1.77501 3.19934,-2.2331 1.44578,-0.47236 3.19218,-0.70856 5.23919,-0.70858 1.24537,2e-5 2.39771,0.14317 3.45701,0.42944 1.07359,0.28632 1.99689,0.74439 2.7699,1.37422 0.77298,0.61555 1.3742,1.42433 1.80366,2.42634 0.44374,0.98774 0.66561,2.19017 0.66563,3.60732 l 0,11.70229 c -0.0143,0.37218 -0.0931,0.69427 -0.23619,0.96624 -0.12885,0.27199 -0.30778,0.50102 -0.5368,0.68711 -0.21474,0.18609 -0.46525,0.32924 -0.75152,0.42944 -0.272,0.0859 -0.55114,0.12884 -0.83742,0.12884 -0.27199,0 -0.54397,-0.043 -0.81594,-0.12884 -0.25768,-0.0859 -0.49387,-0.21472 -0.70858,-0.38649 -0.20042,-0.17178 -0.36504,-0.3865 -0.49385,-0.64417 -0.12885,-0.25766 -0.20043,-0.55827 -0.21472,-0.90183 l 0,-1.6104 c -0.30063,0.51533 -0.70144,1.03782 -1.20244,1.56746 -0.48672,0.51533 -1.05215,0.95193 -1.6963,1.3098 -0.62986,0.34355 -1.30265,0.60837 -2.01837,0.79447 -0.71575,0.17177 -1.43864,0.25766 -2.16869,0.25766 -1.03067,0 -1.99691,-0.14315 -2.89873,-0.42944 -0.88752,-0.28629 -1.66051,-0.70142 -2.31899,-1.24538 -0.64416,-0.54396 -1.15233,-1.21675 -1.52452,-2.01838 -0.37218,-0.80162 -0.55827,-1.62472 -0.55827,-2.46929 0,-1.31695 0.27914,-2.4335 0.83741,-3.34965 0.57259,-0.93045 1.38137,-1.68197 2.42635,-2.25457 1.05928,-0.58689 2.33329,-1.00917 3.82203,-1.26685 1.48872,-0.25765 3.15639,-0.38649 5.003,-0.3865 0.28628,10e-6 0.63699,0.007 1.05213,0.0215 0.42943,10e-6 0.80161,0.007 1.11655,0.0215 l 0,-1.18096 m -0.0215,3.99381 c -0.11453,10e-6 -0.25768,0.007 -0.42944,0.0215 -0.15748,1e-5 -0.32925,1e-5 -0.51533,0 -0.17179,1e-5 -0.35073,1e-5 -0.5368,0 -0.17179,1e-5 -0.32926,1e-5 -0.47239,0 -0.90184,1e-5 -1.80367,0.0501 -2.70548,0.15031 -0.90184,0.10021 -1.71778,0.30061 -2.44782,0.60121 -0.71575,0.28631 -1.30265,0.70144 -1.76072,1.24539 -0.44376,0.52965 -0.66564,1.22391 -0.66563,2.08279 -10e-6,0.42945 0.10735,0.8732 0.32208,1.33127 0.21472,0.45808 0.50101,0.83742 0.85888,1.13802 0.37218,0.30061 0.80878,0.52965 1.3098,0.68711 0.50101,0.14315 1.03781,0.22188 1.61041,0.23619 0.75867,-0.0143 1.46009,-0.1503 2.10427,-0.40797 0.65846,-0.25766 1.23105,-0.637 1.71776,-1.13802 0.48669,-0.51533 0.86603,-1.10223 1.13802,-1.76071 0.28628,-0.65847 0.44375,-1.48157 0.47239,-2.46929 l 0,-1.71777"/>
        <path inkscape:connector-curvature="0" id="path6169" style="font-size:43.97485733px;font-style:normal;font-variant:normal;font-weight:normal;font-stretch:normal;text-indent:0;text-align:center;text-decoration:none;line-height:125%;letter-spacing:0px;word-spacing:0px;text-transform:none;direction:ltr;block-progression:tb;writing-mode:lr-tb;text-anchor:middle;color:black;fill:#424854;fill-opacity:1;fill-rule:nonzero;stroke:none;stroke-width:5;marker:none;visibility:visible;font-family:Nunito;-inkscape-font-specification:Nunito" d="m 283.93193,720.54983 0.40797,-5.776 c 0.0286,-0.3149 0.11451,-0.59403 0.25766,-0.83741 0.15746,-0.25764 0.35071,-0.47236 0.57975,-0.64416 0.22903,-0.17175 0.47954,-0.30058 0.75152,-0.3865 0.27198,-0.0859 0.54396,-0.1288 0.81594,-0.12883 0.51533,3e-5 0.9734,0.15749 1.37422,0.47238 0.4008,0.31495 0.60121,0.80881 0.60122,1.48158 l 0,5.81894 3.28523,0 c 0.58689,2e-5 1.03064,0.18611 1.33127,0.55827 0.30059,0.35789 0.4509,0.75154 0.45091,1.18097 -1e-5,0.42946 -0.15032,0.82311 -0.45091,1.18096 -0.28631,0.35789 -0.73007,0.53682 -1.33127,0.5368 l -3.28523,0 0,8.9324 c -1e-5,1.01635 0.0143,1.87523 0.0429,2.57665 0.0429,0.70143 0.13598,1.27401 0.27914,1.71777 0.15745,0.42944 0.39364,0.74437 0.70858,0.94477 0.32923,0.18609 0.78014,0.27914 1.35274,0.27914 0.14314,0 0.3006,-0.007 0.47239,-0.0215 0.17176,-0.0143 0.34354,-0.0286 0.51533,-0.0429 0.17176,-0.0286 0.32922,-0.0501 0.47238,-0.0644 0.15745,-0.0143 0.27913,-0.0215 0.36503,-0.0215 0.54394,0 0.96623,0.17894 1.26685,0.5368 0.3006,0.35787 0.4509,0.75869 0.45092,1.20244 -2e-5,0.45807 -0.14317,0.83026 -0.42945,1.11655 -0.27199,0.2863 -0.63702,0.51533 -1.09507,0.68711 -0.44377,0.17177 -0.94479,0.28629 -1.50305,0.34355 -0.55829,0.0716 -1.12372,0.10736 -1.6963,0.10736 -1.00204,0 -1.88955,-0.12883 -2.66254,-0.3865 -0.773,-0.25766 -1.42432,-0.67995 -1.95396,-1.26685 -0.52965,-0.60122 -0.93762,-1.38853 -1.22391,-2.36193 -0.27198,-0.9734 -0.40797,-2.16868 -0.40797,-3.58584 l 0,-10.69311 -2.08279,0 c -0.60122,2e-5 -1.05213,-0.17891 -1.35274,-0.5368 -0.2863,-0.35785 -0.42944,-0.7515 -0.42944,-1.18096 0,-0.42943 0.1503,-0.82308 0.45091,-1.18097 0.30061,-0.37216 0.75152,-0.55825 1.35274,-0.55827 l 2.31899,0"/>
        <path inkscape:connector-curvature="0" id="path6171" style="font-size:43.97485733px;font-style:normal;font-variant:normal;font-weight:normal;font-stretch:normal;text-indent:0;text-align:center;text-decoration:none;line-height:125%;letter-spacing:0px;word-spacing:0px;text-transform:none;direction:ltr;block-progression:tb;writing-mode:lr-tb;text-anchor:middle;color:black;fill:#424854;fill-opacity:1;fill-rule:nonzero;stroke:none;stroke-width:5;marker:none;visibility:visible;font-family:Nunito;-inkscape-font-specification:Nunito" d="m 316.99896,739.63852 c -2e-5,0.40082 -0.0716,0.75153 -0.21472,1.05213 -0.14317,0.30061 -0.33642,0.55112 -0.57975,0.75153 -0.22905,0.2004 -0.50103,0.35071 -0.81593,0.45091 -0.30064,0.1002 -0.6084,0.15031 -0.92331,0.15031 -0.30062,0 -0.60123,-0.043 -0.90182,-0.12884 -0.28632,-0.1002 -0.55114,-0.24335 -0.79447,-0.42944 -0.22905,-0.2004 -0.41515,-0.4366 -0.55828,-0.70858 -0.14316,-0.28629 -0.22189,-0.62269 -0.23619,-1.00919 l 0,-1.6104 c -0.28631,0.52964 -0.67997,1.06645 -1.18096,1.6104 -0.50104,0.54397 -1.07362,1.00919 -1.71777,1.39569 -0.64418,0.37218 -1.33844,0.65848 -2.0828,0.85888 -0.73006,0.1861 -1.46727,0.27914 -2.21162,0.27914 -1.00204,0 -1.96113,-0.15746 -2.87726,-0.47238 -0.91615,-0.32924 -1.72493,-0.83026 -2.42635,-1.50305 -0.68711,-0.67279 -1.23823,-1.52452 -1.65335,-2.55518 -0.40082,-1.03066 -0.60122,-2.22594 -0.60122,-3.58584 l 0,-11.20844 c 0,-0.40079 0.0716,-0.7515 0.21472,-1.05213 0.14314,-0.30059 0.32924,-0.5511 0.55828,-0.75152 0.24334,-0.2147 0.51532,-0.37217 0.81594,-0.47239 0.3006,-0.10018 0.60837,-0.15028 0.9233,-0.1503 0.31491,2e-5 0.62268,0.0501 0.9233,0.1503 0.31491,0.10022 0.58689,0.25769 0.81594,0.47239 0.24334,0.20042 0.43659,0.45093 0.57974,0.75152 0.14314,0.30063 0.21472,0.65134 0.21472,1.05213 l 0,11.29433 c 0,0.75868 0.11451,1.43863 0.34356,2.03985 0.22902,0.60122 0.53679,1.10223 0.9233,1.50304 0.38648,0.40082 0.8374,0.70143 1.35274,0.90183 0.51532,0.1861 1.05212,0.27914 1.61041,0.27914 0.71572,0 1.39567,-0.10736 2.03985,-0.32208 0.64414,-0.22904 1.20958,-0.56543 1.69629,-1.00919 0.48669,-0.45807 0.88034,-0.98056 1.18097,-1.56747 0.3149,-0.60121 0.50099,-1.35989 0.55827,-2.27604 l 0,-10.86488 c -2e-5,-0.40079 0.0716,-0.7515 0.21472,-1.05213 0.14313,-0.30059 0.32922,-0.5511 0.55828,-0.75153 0.24333,-0.20038 0.51531,-0.35069 0.81594,-0.45091 0.30059,-0.10018 0.60835,-0.15028 0.9233,-0.1503 0.3149,2e-5 0.62267,0.0501 0.9233,0.1503 0.30059,0.10022 0.56541,0.25053 0.79446,0.45091 0.24333,0.20043 0.43658,0.45094 0.57975,0.75153 0.14313,0.30063 0.2147,0.65134 0.21472,1.05213 l 0,16.68382"/>
        <path inkscape:connector-curvature="0" id="path6173" style="font-size:43.97485733px;font-style:normal;font-variant:normal;font-weight:normal;font-stretch:normal;text-indent:0;text-align:center;text-decoration:none;line-height:125%;letter-spacing:0px;word-spacing:0px;text-transform:none;direction:ltr;block-progression:tb;writing-mode:lr-tb;text-anchor:middle;color:black;fill:#424854;fill-opacity:1;fill-rule:nonzero;stroke:none;stroke-width:5;marker:none;visibility:visible;font-family:Nunito;-inkscape-font-specification:Nunito" d="m 326.94055,726.08963 c -10e-6,0.44377 0.12882,0.81595 0.3865,1.11655 0.25765,0.30062 0.60836,0.56544 1.05213,0.79446 0.44375,0.21474 0.96623,0.40083 1.56746,0.55828 0.60121,0.15747 1.25253,0.31494 1.95396,0.47238 0.70141,0.15748 1.43146,0.34357 2.19016,0.55828 0.77298,0.21473 1.53881,0.45093 2.29751,0.70858 1.35988,0.40082 2.42633,1.03067 3.19934,1.88954 0.78729,0.8589 1.18095,1.9325 1.18097,3.22082 -2e-5,1.05929 -0.25053,2.03269 -0.75152,2.9202 -0.50104,0.88752 -1.18815,1.62473 -2.06133,2.21163 -0.87321,0.5869 -1.89671,1.03066 -3.07051,1.33127 -1.1595,0.28629 -2.40488,0.42944 -3.73614,0.42944 -1.20245,0 -2.34763,-0.1002 -3.43554,-0.30061 -1.07361,-0.2004 -2.01838,-0.47238 -2.83431,-0.81594 -0.81595,-0.34355 -1.46727,-0.74436 -1.95396,-1.20244 -0.47239,-0.45806 -0.70859,-0.94476 -0.70858,-1.4601 -1e-5,-0.40081 0.15746,-0.7372 0.47238,-1.00919 0.31492,-0.27197 0.71574,-0.40796 1.20244,-0.40797 0.28629,10e-6 0.67279,0.093 1.15949,0.27914 0.4867,0.1861 1.05929,0.40797 1.71777,0.66564 0.65847,0.25766 1.38852,0.47954 2.19016,0.66563 0.80161,0.1861 1.66765,0.27914 2.59812,0.27914 0.57258,0 1.13085,-0.0573 1.67482,-0.17178 0.54395,-0.12883 1.02349,-0.32208 1.43863,-0.57975 0.42943,-0.27197 0.77298,-0.60837 1.03066,-1.00918 0.25765,-0.41513 0.38649,-0.90183 0.3865,-1.46011 -1e-5,-0.51532 -0.22905,-0.99486 -0.68711,-1.43863 -0.44377,-0.45806 -1.07361,-0.80877 -1.88954,-1.05213 -0.9591,-0.27197 -1.90387,-0.50816 -2.83432,-0.70858 -0.91615,-0.2004 -1.7965,-0.40796 -2.64107,-0.62269 -0.83026,-0.22903 -1.60325,-0.48669 -2.31898,-0.773 -0.70143,-0.28628 -1.3098,-0.64415 -1.82513,-1.0736 -0.50102,-0.44374 -0.90183,-0.98055 -1.20244,-1.61041 -0.28629,-0.62983 -0.42944,-1.38851 -0.42944,-2.27604 0,-0.87318 0.22903,-1.69628 0.68711,-2.46929 0.45807,-0.78729 1.08791,-1.43861 1.88954,-1.95396 0.81594,-0.51531 1.77502,-0.89465 2.87726,-1.13802 1.10223,-0.24333 2.29751,-0.36501 3.58584,-0.36503 1.34558,2e-5 2.51938,0.10023 3.52143,0.30061 1.00201,0.20043 1.83227,0.46525 2.49076,0.79447 0.67278,0.31494 1.17379,0.67997 1.50305,1.09507 0.32922,0.40084 0.49384,0.80881 0.49386,1.22391 -2e-5,0.40083 -0.15748,0.71576 -0.47239,0.94478 -0.31494,0.21473 -0.70144,0.32209 -1.15949,0.32208 -0.15748,10e-6 -0.3221,-0.0143 -0.49386,-0.043 -0.15748,-0.0429 -0.31494,-0.10734 -0.47239,-0.19325 -0.5726,-0.32922 -1.28118,-0.59404 -2.12574,-0.79446 -0.83026,-0.20039 -1.85377,-0.30059 -3.07051,-0.30061 -0.68711,2e-5 -1.31696,0.0501 -1.88954,0.1503 -0.55828,0.0859 -1.03783,0.23621 -1.43863,0.45092 -0.38651,0.21474 -0.69427,0.50819 -0.9233,0.88035 -0.21473,0.3722 -0.32209,0.69428 -0.32208,0.96625"/>
      </g>
      <g id="g6156">
        <path sodipodi:type="arc" style="color:black;fill:#ff593d;fill-opacity:1;fill-rule:nonzero;stroke:none;stroke-width:1;marker:none;visibility:visible;display:inline;overflow:visible;enable-background:accumulate" id="path10125-6" sodipodi:cx="3436.8252" sodipodi:cy="402.79428" sodipodi:rx="72.002151" sodipodi:ry="72.002151" d="m 3508.8273,402.79428 a 72.002151,72.002151 0 1 1 -144.0043,0 72.002151,72.002151 0 1 1 144.0043,0 z" transform="matrix(0.34721181,0,0,0.34721181,-1038.1265,586.80375)"/>
        <path inkscape:connector-curvature="0" style="color:black;fill:white;fill-opacity:1;fill-rule:nonzero;stroke:none;stroke-width:60;marker:none;visibility:visible;display:inline;overflow:visible;enable-background:accumulate" d="m 163.05251,713.02153 0,7.95554 c 0,0 -13.98163,-6.93128 -15.74471,-6.93128 -1.23962,0 -2.34558,0.54375 -3.15095,1.36301 -2.06667,2.10227 -4.72241,5.56898 -4.72241,11.2508 -1e-5,2.27273 0.98452,9.6588 7.87336,13.63606 l 0,-7.95554 c 0,0 13.98161,6.93128 15.74471,6.93128 1.23961,0 2.34357,-0.54374 3.14894,-1.363 2.06667,-2.10227 4.72442,-5.56698 4.72442,-11.2488 0,-2.27273 -0.98452,-9.6608 -7.87336,-13.63807 z m -7.87336,7.95554 c 3.13785,0 5.68253,2.54468 5.68253,5.68253 0,3.13785 -2.54468,5.68052 -5.68253,5.68052 -3.13785,0 -5.68052,-2.54267 -5.68052,-5.68052 0,-3.13785 2.54267,-5.68253 5.68052,-5.68253 z m 0,2.27301 c -1.88266,0 -3.40751,1.52686 -3.40751,3.40952 0,1.88266 1.52485,3.40751 3.40751,3.40751 1.88266,0 3.40952,-1.52485 3.40952,-3.40751 -1e-5,-1.88266 -1.52686,-3.40952 -3.40952,-3.40952 z" id="path10127-1"/>
      </g>
    </g>
  </g>
</svg>